<svg xmlns="http://www.w3.org/2000/svg" width="1024" height="1024" viewBox="0 0 1024 1024"><path d="M646.15 321.067c5.941.089 8.12 2.182 9.13 8.177 4.794 28.46 4.421 57.555 8.938 86.067 8.592-4.885 21.907-15.09 30.429-21.149a4102 4102 0 0 0 53.912-38.762c8.401-6.254 32.16-25.42 40.584-28.181 1.52.261 3.754.622 4.644 1.936 1.74 2.566 1.367 10.518.97 13.479-1.375 10.163-3.477 20.272-5.307 30.378-3.985 21.997-7.632 44.346-12.326 66.188 14.35-2.865 91.83-20.296 99.968-18.193 6.026 5.068 2.859 8.978-.642 14.061-15.459 22.441-29.699 47.527-42.962 71.237a4092 4092 0 0 0-69.292 131.437c5.808 13.622 1.38 22.608-8.784 32.058 1.598 20.717-4.355 31.644-24.539 38.414-42.468 10.59-99.91 1.503-142.438-5.784-28.145-4.823-55.235-10.217-82.783-17.664-.664-5.495-1.7-11.516-1.644-16.99 8.362-9.377 24.292-19.958 34.481-30.037-5.215-3.7-42.86-27.672-29.903-33.046 5.543-2.3 28.035-4.008 35.005-4.554-3.795-6.934-13.797-14.981-14.983-19.649 1.199-7.086 24.542-24.533 31.377-30.007-10.379-6.543-31.842-18.661-39.876-25.795 4.263-10.817 22.181-34.716 29.268-46.073-6.387-4.747-13.424-6.599-18.825-13.403q.076-.203.153-.406c.088-.225.181-.448.267-.674 2.847-7.541 22.821-28.155 29.473-36.83-7.933-7.061-22.437-14.544-26.29-23.099 8.094-11.686 30.345-25.202 42.492-34.072l47.65-34.533c4.697-3.35 17.311-12.988 21.853-14.531"/><path fill="#feca50" d="M639.66 354.882c3.226 1.498 8.188 101.686 9.78 112.734 1.747 12.131-2.914 61.492 19.216 28.732 18.863-27.926 39.728-54.018 60.287-80.652 13.751-17.815 27.135-37.604 43.618-52.846-2.778 16.183-20.873 126.812-19.534 135.563 1.168 1.3 1.266 1.248 2.78 1.994 6.521.271 71.884-35.758 84.652-41.324a2678 2678 0 0 0-41.816 76.84c-15.822 30.416-30.743 60.827-46.959 91.08-3.967-3.069-8.348-5.306-12.744-7.684l11.111-20.124c17.091-32.633 35.737-65.038 53.817-97.135 1.331-2.363 1.646-6.823-.971-8.52-5.377.454-11.333 15.642-13.797 20.14l-20.882 37.65c-11.033 20.038-25.561 44.278-35.324 64.295-55.21-26.235-117.355-39.954-177.988-45.803 6.881-6.902 18.94-14.387 22.603-21.231-7.503-6.893-33.643-20.735-43.906-27.239 7.462-12.018 23.907-32.448 28.753-44.778-4.11-6.15-10.38-9.299-16.616-13.23 7.016-10.224 25.375-29.547 29.179-38.665-2.768-4.028-10.039-9.185-14.117-12.46 7.268-5.966 19.155-13.892 27.035-19.512a1861 1861 0 0 0 51.823-37.825"/><path d="M773.44 513.704c4.99 1.659 2.193 7.951.631 11.687-5.691 13.611-13.452 26.815-20.504 39.768-5.243 9.63-11.781 26.491-19.649 33.546-3.394-1.629-3.549-4.729-2.004-7.828 2.849-5.717 5.802-11.356 8.759-17.017l18.684-34.974c4.422-8.155 8.603-18.02 14.083-25.182"/><path d="M688.984 493.85c2.741-.093 3.859.162 5.244 2.513.513 6.534-12.892 25.762-17.279 31.623-15.972.706 8.361-30.364 12.035-34.136"/><path d="M717.243 445.874c2.859.714 4.717 1.333 5.205 4.365-2.12 5.983-15.195 26.702-19.508 31.952-1.504-.182-5.838-1.186-5.204-3.199 3.162-10.044 12.373-25.903 19.507-33.118"/><defs><linearGradient id="a" x1="720.766" x2="561.995" y1="696.705" y2="567.665" gradientUnits="userSpaceOnUse"><stop offset="0" stop-color="#ffcc58"/><stop offset="1" stop-color="#ffea95"/></linearGradient></defs><path fill="url(#a)" d="M545.782 584.751c25.063.875 59.79 7.26 84.274 12.956 34.826 8.102 98.689 23.609 122.113 51.938-1.504 2.791-3.08 4.624-5.047 7.096-4.963-4.926-25.963-20.75-33.189-20.545-.914.025-1.456.064-2.12.694-.983.934-1.791 2.141-1.81 3.533-.034 2.467 18.685 13.149 21.788 15.424 3.251 2.383 6.126 5.036 8.986 7.87-2.49 5.351-2.098 7.077-.953 12.65-3.947 1.797-5.625 3.537-9.977 3.829-1.433-2.313-2.867-4.401-4.762-6.361-29.243-30.239-147.665-52.89-189.879-53.417-3.396-2.924-5.671-5.129-8.79-8.357 9.63-.807 21.152.574 30.234-1.15 2.358-.448 3.746-4.591 4.636-6.878-4.865-6.859-10.817-12.439-15.504-19.282"/><path d="M656.582 613.895c6.39.522 34.883 8.705 37.069 14.233.114 1.903-.54 2.607-1.51 4.266-4.723.46-16.853-3.679-21.772-5.505-2.696-1.001-13.704-4.178-15.001-6.962-.846-1.816.425-4.236 1.214-6.032"/><path fill="#f79620" d="M548.302 631.059c15.265 1.256 31.034 4.092 46.08 7.073 38.88 7.705 83.477 17.773 116.39 40.92-8.423.935-12.953.873-21.293.551-47.093-.296-111.157-10.781-158.332-21.843 5.414-4.242 19.754-13.261 21.8-18.718.049-3.216-2.534-5.531-4.645-7.983"/><defs><linearGradient id="b" x1="630.586" x2="625.739" y1="705.198" y2="658.156" gradientUnits="userSpaceOnUse"><stop offset="0" stop-color="#ff9f23"/><stop offset="1" stop-color="#fec042"/></linearGradient></defs><path fill="url(#b)" d="M519.316 668.006c12.553 2.494 25.06 5.856 37.662 8.471 43.563 9.037 87.676 16.834 132.307 17.161 11.022.081 26.677.789 36.396-5.192 2.951-1.816 3.553-5.069 4.166-8.25 4.352-.292 6.03-2.032 9.977-3.829.532 4.708.423 8.08-2.801 11.923-6.371 7.594-18.277 9.199-27.528 9.826-48.689 3.297-97.707-4.829-145.363-14.187-15.652-3.073-34.967-6.641-50.068-11.207 1.714-1.6 3.418-3.262 5.252-4.716"/><path d="M371.545 321.477c2.121.001 3.704.298 5.663 1.124 10.953 4.618 75.59 44.24 77.331 50.112.905 3.052-17.89 30.843-20.63 36.036 25.277 3.586 51.332 5.33 76.349 10.946 2.584.58 4.928 1.031 5.967 3.551-.159 1.689-1.148 3.854-2.384 4.974-23.032 20.874-42.801 44.975-63.933 67.846 10.279 2.761 23.738 6.011 33.2 11.168 2.34 1.276 2.22 4.849.435 6.812-7.875 8.66-16.981 16.206-25.313 24.49 14.413 6.644 41.201 17.254 52.401 28.101-.295 6.694-2.794 16.844-4.594 23.44-4.488 3.726-14.173 8.855-20.002 12.915 1.996 9.394 9.584 27.501 12.682 38.609-4.251 6.414-10.362 10.313-14.733 16.523 4.193 10.561 9.633 21.085 14.513 31.357 2.668 5.616 4.852 13.211-4.45 13.155-4.461-1.962-7.15-10.333-9.085-14.975-10.79 1.737-22.645 4.758-33.738 6.632-44.797 7.569-88.776 15.142-134.348 13.161-7.413-.446-37.006-3.631-40.485-10.964-6.329-13.336-12.011-28.702-18.908-42.098-3.332-6.472-2.883-10.5-.426-16.941-6.266-14.293-15.027-30.776-22.023-44.968a2174 2174 0 0 0-66.251-124.976c-5.787-10.08-11.679-20.776-18.181-30.343-6.635-9.762-8.205-17.991 7.005-15.716 11.052 1.653 22.049 3.686 33.064 5.592 17.647 3.11 35.372 5.76 53.156 7.948l-11.474-68.906c-1.495-8.991-6.336-28.833-4.466-38.498 2.24-4.199 8.088-.63 9.878.606 41.811 28.87 81.158 61.465 122.091 91.424l5.095-63.59c.737-9.119.955-18.834 2.385-27.805.587-3.683 1.271-4.816 4.209-6.742"/><path fill="#28ace4" d="M371.844 511.498c1.904-12.289 2.837-28.263 3.878-40.95a3230 3230 0 0 0 4.969-68.258c.865-14.5 1.302-29.336 2.48-43.773a5572 5572 0 0 0 37.712 64.317c3.037 5.015 17.494 29.669 22.146 31.186 7.868-2.727-9.854-30.213-12.559-35.825 8.272 1.262 21.239 2.698 28.9 4.269 6.891 9.584 12.452 16.697 20.267 25.568-13.787 16.136-28.672 31.21-42.867 46.971-1.748 1.94-3.591 5.97-.362 7.715 10.323 4.979 22.029 5.961 32.712 10.506l-14.299 13.93c-3.386 3.245-15.465 13.199-8.82 17.111 12.2 7.181 27.812 12.125 39.845 19.595-68.568 4.972-137.39 17.323-198.383 50.427-6.06-13.021-12.739-25.289-19.139-38.11l-25.519-51.91c-7.499-15.052-15.603-30.975-22.124-46.441 14.475 6.36 39.618 19.261 52.992 23.081-2.356-21.485-7.017-43.702-9.887-65.358 4.165-2.583 12.929-5.859 17.679-8.232 5.453-2.725 8.992-4.926 14.122-8.161 23.43 29.499 50.985 64.831 76.257 92.342"/><path d="M308.817 448.814c4.375 2.783 8.009 7.487 11.213 11.486 10.104 12.61 60.529 83.958 63.593 94.283.575 1.938-.386 2.944-1.32 4.493-1.119.468-3.202 1.38-4.401.92-5.685-2.184-48.203-71.248-55.138-81.946-4.184-6.455-9.192-12.705-12.998-19.347-1.93-3.369-1.982-6.219-.949-9.889"/><path fill="#b1e3f3" d="M275.51 655.115c-1.733-2.852-5.811-8.705-2.41-11.532 46.635-38.766 113.468-51.119 171.798-60.092 7.606-1.17 48.113-6.391 51.597-3.767 1.193 8.484-22.436 12.358-26.593 21.042-.145 3.536 4.404 10.972 6.204 14.543-15.772 2.977-31.705 2.723-48.133 6.045-40.623 7.864-82.045 17.291-118.13 38.363-7.543 4.404-18.919 9.297-16.357 19.672-1.349 2.776-2.691 3.523-5.311 5.236-2.337-6.258-4.989-12.521-7.364-18.85 2.463-5.191 13.22-15.738 9.643-20.139-6.652-2.628-11.781 5.019-14.944 9.479"/><path d="M331.521 617.532a58 58 0 0 1 2.579-.084c8.014-.016 5.033 7.299-.032 9.242-10.055 3.858-19.01 7.339-28.574 12.391-2.342.934-4.754-.291-6.339-2.01-1.535-5.776 9.549-9.945 13.886-12.057a147.5 147.5 0 0 1 18.48-7.482"/><path fill="#1b62b1" d="m477.253 625.223.93.084c2.538 2.048 4.974 9.297 6.288 12.647-3.77 3.553-8.091 6.385-11.324 10.377-2.063 2.547-1.651 3.446-1.156 6.674-17.819 4.97-35.963 7.703-54.239 10.495-33.16 5.066-67.214 10.438-100.808 8.054-4.256-.059-6.623-.117-10.794-.738 34.248-26.853 126.649-41.793 171.103-47.593"/><path fill="#1b62b1" d="M182.939 458.692c4.722 1.292 24.588 12.033 30.196 14.975 8.085 21.135 23.427 48.784 34.053 69.527 11.833 23.1 24.307 51.165 36.846 73.431l-6.271 4.026c-2.728 1.741-5.938 4.211-8.605 6.156a2355 2355 0 0 0-58.376-115.501c-9.007-17.04-20.206-35.269-27.843-52.614"/><path fill="#1b62b1" d="M251.06 364.751c14.273 16.421 30.743 37.177 44.527 54.405-5.13 3.235-8.669 5.436-14.122 8.161-4.75 2.373-13.514 5.649-17.679 8.232-2.498-22.718-8.067-48.183-12.726-70.798"/><defs><linearGradient id="c" x1="383.603" x2="381.701" y1="688.1" y2="671.12" gradientUnits="userSpaceOnUse"><stop offset="0" stop-color="#2b96e8"/><stop offset="1" stop-color="#43b6f0"/></linearGradient></defs><path fill="url(#c)" d="m293.486 679.389.46.447c20.773 19.847 143.186-2.508 172.387-8.707 3.309-.702 9.063-2.694 10.42 1.671-1.04 1.38-2.492 1.738-4.133 2.221-8.3 2.444-17.52 3.35-26.063 4.765-14.661 2.427-29.277 4.984-43.996 7.05-19.156 2.689-97.399 11.525-112.612-.208-.733-.565-1.235-1.261-1.774-2.003 2.62-1.713 3.962-2.46 5.311-5.236"/><path fill="#28ace4" d="M398.741 363.787c4.529 1.603 29.123 21.382 34.701 25.762a855 855 0 0 0-6.585 11.743l-2.905 5.904c-7.686-10.815-18.856-31.48-25.211-43.409"/><path fill="#28ace4" d="M474.078 424.284c6.335.276 14.846 1.933 21.227 3.004-1.418 2.109-3.765 4.912-5.408 6.981l-4.163 4.937c-4.439-4.962-8.39-9.062-11.656-14.922"/><path d="M501.406 769.892c11.366 7.04 9.447 27.011 5.579 37.814-10.769-7.048-10.724-27.078-5.579-37.814"/><path d="M508.094 253.71c.869.116 2.411.511 2.749 1.376 2.87 7.357 1.637 26.4-5.503 30.852-7.82-6.254-3.965-26.01 2.754-32.228"/><path d="M431.294 747.43c2.139-.21 2.794-.204 4.637.74 4.352 6.497-10.9 18.163-15.741 21.196-2.038.905-1.522 1.06-3.25.63-2.182-4.804 5.193-14.986 8.525-18.524 1.713-1.819 3.652-2.901 5.829-4.042"/><path d="M575.23 325.458c2.259.502 2.452.56 3.813 2.083 1.525 6.513-13.602 15.149-18.504 17.51-2.218.063-2.673-.031-4.031-1.632-1.111-6.211 13.709-15.879 18.722-17.961"/><path d="M573.863 247.278c1.936.274 1.969.15 3.459 1.523 3.019 6.274-7.33 18.367-11.741 22.379-11.561-1.845 5.215-20.574 8.282-23.902"/><path d="M586.501 736.123c10.615-.198 23.581 7.83 18.295 19.615-5.813.235-12.561-12.579-16.838-16.801l-1.282-1.287-.474-.477z"/><path d="M463.513 303.906c7.491 3.14 12.485 14.767 6.638 21.462-7.23-1.832-12.464-15.472-6.638-21.462"/><path d="M530.137 724.567c8.436-.54 20.522 7.909 13.941 17.242-4.389.422-14.884-13.076-14.862-16.481z"/><path d="M340.041 247.27c6.066 1.123 15.083 5.837 9.469 12.963-5.545-1.131-15.814-6.523-9.469-12.963"/><path d="M358.443 296.91c5.179-.341 17.766 4.394 14.899 10.835-6.214.22-17.086-2.577-14.899-10.835"/><path d="M469.104 731.274c8.673 1.764-1.912 11.138-5.204 13.253-2.028.074-1.215.396-2.624-.684-1.254-4.3 4.802-10.041 7.828-12.569"/><path d="M438.153 224.871c6.596.31 6.979 4.023 3.342 8.509-5.711 1.629-6.313-4.785-3.342-8.509"/><path d="M642.905 267.741c6.125.545 6.097 4.226 2.424 8.196-1.9.096-2.483.312-4.029-.778-1.791-3.102-.517-4.951 1.605-7.418"/></svg>